<svg width="28" height="26" viewBox="0 0 28 26" fill="none" xmlns="http://www.w3.org/2000/svg">
<path d="M12.5734 1.39057C13.0224 0.00860843 14.9776 0.00861018 15.4266 1.39058L17.48 7.71024C17.6808 8.32827 18.2567 8.74671 18.9066 8.74671L25.5514 8.74671C27.0045 8.74671 27.6087 10.6061 26.4331 11.4602L21.0573 15.366C20.5316 15.748 20.3116 16.425 20.5124 17.0431L22.5658 23.3627C23.0148 24.7447 21.4331 25.8939 20.2575 25.0398L14.8817 21.134C14.3559 20.752 13.6441 20.752 13.1183 21.134L7.7425 25.0398C6.56693 25.8939 4.98521 24.7447 5.43424 23.3627L7.48762 17.0431C7.68843 16.425 7.46844 15.748 6.94271 15.366L1.56688 11.4602C0.391314 10.6061 0.995478 8.74671 2.44856 8.74671L9.09345 8.74671C9.74329 8.74671 10.3192 8.32827 10.52 7.71024L12.5734 1.39057Z" fill="#C4C4C4"/>
</svg>
